<?xml version="1.0" standalone="no"?>
<!DOCTYPE svg PUBLIC "-//W3C//DTD SVG 20010904//EN"
 "http://www.w3.org/TR/2001/REC-SVG-20010904/DTD/svg10.dtd">
<svg version="1.0" xmlns="http://www.w3.org/2000/svg"
 width="512.000000pt" height="512.000000pt" viewBox="0 0 512.000000 512.000000"
 preserveAspectRatio="xMidYMid meet">
<metadata>
Created by potrace 1.11, written by Peter Selinger 2001-2013
</metadata>
<g transform="translate(0.000000,512.000000) scale(0.100000,-0.100000)"
fill="#000000" stroke="none">
<path d="M720 4824 c-211 -51 -385 -234 -426 -451 -20 -99 -1 -247 43 -341 62
-134 189 -247 337 -299 91 -33 236 -37 336 -8 36 10 67 21 70 24 3 3 28 17 55
31 28 13 82 56 120 95 296 297 180 793 -217 932 -87 31 -231 38 -318 17z"/>
<path d="M4136 4824 c-440 -104 -586 -666 -251 -972 54 -49 163 -112 220 -126
61 -16 71 -17 145 -20 220 -9 399 96 521 304 67 113 81 295 34 437 -78 234
-292 390 -535 391 -41 0 -101 -7 -134 -14z"/>
<path d="M450 3404 c-98 -21 -201 -76 -274 -147 -78 -77 -126 -159 -154 -263
-22 -79 -22 -94 -20 -580 3 -493 3 -499 25 -540 33 -63 99 -121 161 -144 30
-12 61 -19 68 -16 7 3 17 0 21 -7 4 -7 8 -277 8 -602 l1 -590 26 -56 c28 -62
73 -109 133 -142 39 -22 48 -22 406 -22 l365 0 47 24 c61 32 115 91 139 155
19 48 20 79 20 504 l1 454 -28 24 c-16 13 -72 66 -125 117 -53 50 -146 139
-208 197 -62 58 -127 127 -144 153 -81 126 -82 288 -4 422 20 33 166 179 375
374 20 18 98 93 175 165 161 152 174 164 189 169 31 10 -74 167 -158 236 -52
43 -140 90 -210 111 -60 19 -748 22 -835 4z"/>
<path d="M3869 3404 c-159 -30 -291 -127 -381 -280 l-37 -63 29 -18 c15 -10
95 -82 176 -159 82 -78 165 -156 184 -174 220 -202 350 -336 378 -388 65 -122
63 -261 -5 -381 -27 -46 -54 -74 -214 -226 -52 -49 -141 -134 -198 -188 l-103
-98 0 -448 c-1 -516 0 -517 81 -602 84 -88 93 -89 503 -86 341 2 354 3 394 24
57 31 103 79 132 143 l26 55 1 595 0 595 54 13 c69 16 141 61 176 111 54 79
55 94 54 616 0 423 -3 488 -18 545 -55 207 -227 371 -431 414 -88 18 -705 18
-801 0z"/>
<path d="M1823 2848 c-17 -14 -76 -67 -131 -119 -54 -52 -164 -155 -243 -229
-312 -293 -309 -291 -309 -337 0 -37 27 -86 61 -113 6 -5 188 -176 315 -297
195 -185 298 -278 321 -292 37 -21 83 -16 119 15 l29 26 3 181 c2 100 7 184
12 187 6 4 1095 5 1123 1 4 0 7 -78 7 -172 0 -106 4 -179 11 -192 19 -37 52
-57 96 -57 43 0 70 20 194 140 34 33 243 230 339 320 269 251 268 243 68 431
-72 68 -148 140 -168 159 -366 347 -378 358 -402 366 -33 10 -83 -5 -109 -32
-23 -25 -24 -32 -29 -207 l-5 -182 -567 -1 -568 0 0 178 0 178 -27 30 c-39 43
-96 50 -140 18z"/>
</g>
</svg>
